<svg width="100%" height="100%" viewBox="0 0 50 50" fill="none" xmlns="http://www.w3.org/2000/svg">
<path d="M25.0023 18.7498C21.5494 18.7498 18.7523 21.548 18.7523 24.9998C18.7523 28.4525 21.5504 31.2498 25.0023 31.2498C28.455 31.2498 31.2523 28.4517 31.2523 24.9998C31.2523 21.5471 28.4542 18.7498 25.0023 18.7498ZM25.0023 14.5832C30.7532 14.5832 35.419 19.2438 35.419 24.9998C35.419 30.7509 30.7584 35.4165 25.0023 35.4165C19.2513 35.4165 14.5856 30.7559 14.5856 24.9998C14.5856 19.2489 19.2462 14.5832 25.0023 14.5832ZM38.544 14.0606C38.544 15.4983 37.3757 16.6648 35.9398 16.6648C34.5021 16.6648 33.3357 15.4965 33.3357 14.0606C33.3357 12.6246 34.5038 11.4582 35.9398 11.4582C37.3738 11.4564 38.544 12.6246 38.544 14.0606ZM25.0023 8.33317C19.8471 8.33317 19.0069 8.34682 16.6091 8.45359C14.9756 8.53027 13.8805 8.74998 12.8631 9.14498C11.9589 9.49565 11.3067 9.91438 10.6117 10.6093C9.91413 11.3069 9.49615 11.9574 9.1469 12.862C8.75099 13.8818 8.53134 14.9751 8.45603 16.6064C8.34822 18.9065 8.33561 19.7104 8.33561 24.9998C8.33561 30.155 8.34926 30.9953 8.45601 33.3928C8.53274 35.0257 8.75274 36.1223 9.14678 37.1373C9.49836 38.0428 9.91795 38.6965 10.6095 39.3882C11.3099 40.0875 11.9623 40.5069 12.8583 40.8528C13.8881 41.2509 14.9825 41.4709 16.6088 41.5461C18.9089 41.6538 19.7128 41.6665 25.0023 41.6665C30.1575 41.6665 30.9977 41.6528 33.3952 41.5461C35.0246 41.4696 36.1221 41.249 37.1398 40.8553C38.0427 40.5046 38.6986 40.0836 39.3907 39.3925C40.0911 38.6911 40.5096 38.0403 40.8559 37.1421C41.2529 36.1161 41.4734 35.0203 41.5486 33.3934C41.6563 31.0932 41.669 30.2892 41.669 24.9998C41.669 19.8447 41.6552 19.0044 41.5486 16.6069C41.4719 14.977 41.2513 13.8779 40.8571 12.8606C40.5073 11.959 40.0871 11.3047 39.3927 10.6093C38.694 9.91057 38.0452 9.49344 37.14 9.14446C36.1211 8.74888 35.0261 8.52892 33.3957 8.45361C31.0957 8.34577 30.2917 8.33317 25.0023 8.33317ZM25.0023 4.1665C30.6619 4.1665 31.3686 4.18734 33.5909 4.2915C35.8077 4.39394 37.32 4.74463 38.6482 5.26025C40.0213 5.78977 41.1811 6.50505 42.339 7.66302C43.4952 8.82102 44.2107 9.98421 44.7419 11.354C45.2557 12.6804 45.6065 14.1943 45.7107 16.4113C45.8096 18.6335 45.8357 19.3401 45.8357 24.9998C45.8357 30.6596 45.8148 31.3661 45.7107 33.5884C45.6082 35.8055 45.2557 37.3175 44.7419 38.6457C44.2123 40.019 43.4952 41.1786 42.339 42.3367C41.1811 43.493 40.0161 44.2082 38.6482 44.7394C37.32 45.2534 35.8077 45.604 33.5909 45.7082C31.3686 45.8071 30.6619 45.8332 25.0023 45.8332C19.3426 45.8332 18.6359 45.8123 16.4137 45.7082C14.1967 45.6057 12.6863 45.2534 11.3564 44.7394C9.9849 44.2098 8.82345 43.493 7.66547 42.3367C6.50749 41.1786 5.79395 40.0138 5.2627 38.6457C4.74707 37.3175 4.39811 35.8055 4.29395 33.5884C4.19499 31.3661 4.16895 30.6596 4.16895 24.9998C4.16895 19.3401 4.18978 18.6335 4.29395 16.4113C4.39636 14.1925 4.74707 12.6821 5.2627 11.354C5.7922 9.98248 6.50749 8.82102 7.66547 7.66302C8.82345 6.50505 9.98665 5.7915 11.3564 5.26025C12.6846 4.74463 14.195 4.39567 16.4137 4.2915C18.6359 4.19255 19.3426 4.1665 25.0023 4.1665Z" fill="currentColor"/>
</svg>
