<svg width="100%" height="100%" viewBox="0 0 50 50" fill="none" xmlns="http://www.w3.org/2000/svg">
<path d="M22.9175 4.1665V17.5289C22.0723 17.3729 21.2017 17.2915 20.3133 17.2915C12.4318 17.2915 6.04248 23.6807 6.04248 31.5623C6.04248 39.444 12.4318 45.8332 20.3133 45.8332C28.1948 45.8332 34.5842 39.444 34.5842 31.5623V23.7782C36.7429 24.6955 39.0962 25.2082 41.6677 25.2082H43.751V13.5415H41.6677C37.7012 13.5415 34.5842 10.3386 34.5842 6.24984V4.1665H22.9175ZM27.0842 8.33317H30.6C31.4204 12.9584 34.9319 16.6583 39.5844 17.5188V20.8919C37.4217 20.5749 35.4694 19.7633 33.6598 18.5519L30.4175 16.3816V31.5623C30.4175 37.1428 25.8938 41.6665 20.3133 41.6665C14.7329 41.6665 10.2091 37.1428 10.2091 31.5623C10.2091 25.9819 14.7329 21.4582 20.3133 21.4582C20.4881 21.4582 20.6619 21.4625 20.8344 21.4713V24.8113C20.6624 24.7982 20.4886 24.7915 20.3133 24.7915C16.5739 24.7915 13.5425 27.823 13.5425 31.5623C13.5425 35.3017 16.5739 38.3332 20.3133 38.3332C24.0527 38.3332 27.0842 35.3017 27.0842 31.5623C27.0842 23.8194 27.0817 16.0762 27.0842 8.33317ZM17.7091 31.5623C17.7091 30.124 18.8751 28.9582 20.3133 28.9582C21.7515 28.9582 22.9175 30.124 22.9175 31.5623C22.9175 33.0007 21.7515 34.1665 20.3133 34.1665C18.8751 34.1665 17.7091 33.0007 17.7091 31.5623Z" fill="currentColor"/>
</svg>
